<svg xmlns="http://www.w3.org/2000/svg" viewBox="0 0 200 200" width="200" height="200">
  <rect width="200" height="200" rx="16" fill="#1A1A1A"/>
  <!-- Lip shape (stylized) -->
  <!-- Upper lip -->
  <path d="M60 88 Q72 62 88 72 Q96 56 104 56 Q112 56 120 72 Q136 62 148 88" fill="none" stroke="#FFD700" stroke-width="2.5" stroke-linecap="round"/>
  <!-- Lower lip -->
  <path d="M60 88 Q80 120 104 122 Q128 120 148 88" fill="none" stroke="#FFD700" stroke-width="2.5" stroke-linecap="round"/>
  <!-- Filled lip with gradient feel -->
  <path d="M64 88 Q74 66 88 74 Q96 60 104 60 Q112 60 120 74 Q134 66 144 88 Q126 116 104 118 Q82 116 64 88Z" fill="#FFC107" opacity="0.2"/>
  <!-- Inner lip shine -->
  <path d="M76 88 Q84 78 96 80 Q100 72 104 72 Q108 72 112 80 Q124 78 132 88 Q120 106 104 108 Q88 106 76 88Z" fill="#FFD700" opacity="0.15"/>
  <!-- Small shine highlight -->
  <ellipse cx="92" cy="82" rx="6" ry="3" fill="#FFD700" opacity="0.25" transform="rotate(-15, 92, 82)"/>
  <!-- Small butter/balm container below -->
  <rect x="82" y="132" width="36" height="14" rx="6" fill="#FF9800" opacity="0.6"/>
  <rect x="80" y="128" width="40" height="8" rx="4" fill="#FFC107" opacity="0.6"/>
  <!-- Product name -->
  <text x="100" y="170" text-anchor="middle" font-family="system-ui, -apple-system, sans-serif" font-weight="500" font-size="10" fill="rgba(255,255,255,0.72)">Banana Lip Butter</text>
</svg>