<svg xmlns="http://www.w3.org/2000/svg" viewBox="0 0 200 200" width="200" height="200">
  <rect width="200" height="200" rx="16" fill="#1A1A1A"/>
  <!-- Outer circle -->
  <circle cx="100" cy="88" r="52" fill="none" stroke="#FFD700" stroke-width="2.5"/>
  <!-- Stylized banana arc -->
  <path d="M75 72 Q72 95 82 110 Q90 122 105 118 Q112 116 114 108 Q116 98 108 82 Q102 70 88 66 Q80 64 75 72Z" fill="#FFC107"/>
  <!-- Banana highlight -->
  <path d="M80 76 Q78 92 86 105 Q90 110 96 108 Q98 106 97 98 Q96 86 90 76 Q86 70 80 76Z" fill="#FFD700" opacity="0.6"/>
  <!-- NB monogram -->
  <text x="100" y="96" text-anchor="middle" font-family="system-ui, -apple-system, sans-serif" font-weight="600" font-size="22" fill="white" letter-spacing="1">NB</text>
  <!-- Brand name -->
  <text x="100" y="162" text-anchor="middle" font-family="system-ui, -apple-system, sans-serif" font-weight="500" font-size="11" fill="rgba(255,255,255,0.72)" letter-spacing="2">NANO BANANA</text>
</svg>